<svg fill="none" height="256" viewBox="0 0 256 256" width="256" xmlns="http://www.w3.org/2000/svg"><path d="m0 0h256v256h-256z" fill="#000e5e"/><g fill="#43cffa"><path d="m43.37 222c-2.2011 0-4.0892-.769-5.6641-2.306-1.556-1.555-2.3245-3.444-2.3055-5.664-.019-2.163.7495-4.013 2.3055-5.55 1.5749-1.537 3.463-2.305 5.6641-2.305 2.0873 0 3.9279.768 5.5218 2.305 1.6129 1.537 2.4289 3.387 2.4478 5.55-.0189 1.48-.4079 2.828-1.1669 4.042-.7401 1.196-1.7078 2.154-2.9033 2.875-1.1954.702-2.4952 1.053-3.8994 1.053z"/><path d="m114.072 184.657h-16.053c-.1139-1.329-.4175-2.534-.9109-3.615-.4743-1.082-1.1385-2.012-1.9924-2.79-.8349-.797-1.8501-1.404-3.0455-1.821-1.1955-.437-2.5522-.655-4.0702-.655-2.6566 0-4.9051.645-6.7457 1.936-1.8217 1.29-3.2069 3.14-4.1556 5.55-.9298 2.41-1.3947 5.303-1.3947 8.681 0 3.567.4744 6.556 1.4231 8.966.9678 2.391 2.3625 4.193 4.1841 5.408 1.8216 1.195 4.0133 1.793 6.5749 1.793 1.4611 0 2.7704-.18 3.9279-.541 1.1575-.379 2.1632-.92 3.0171-1.622s1.5465-1.547 2.0778-2.533c.5503-1.006.9203-2.135 1.1101-3.387l16.053.113c-.19 2.467-.882 4.981-2.078 7.543-1.195 2.543-2.893 4.896-5.095 7.059-2.182 2.144-4.886 3.871-8.1115 5.18-3.2258 1.31-6.9735 1.964-11.2429 1.964-5.3511 0-10.1518-1.148-14.4023-3.444-4.2315-2.296-7.5806-5.673-10.0474-10.133-2.4479-4.459-3.6718-9.914-3.6718-16.366 0-6.489 1.2524-11.954 3.7572-16.395 2.5047-4.459 5.8823-7.827 10.1328-10.104 4.2505-2.296 8.9943-3.444 14.2315-3.444 3.6812 0 7.0683.503 10.1613 1.509 3.0931 1.005 5.8061 2.476 8.1401 4.411 2.334 1.917 4.213 4.279 5.636 7.088 1.423 2.808 2.286 6.024 2.59 9.649z"/><path d="m152.675 181.013c-.152-1.897-.863-3.377-2.135-4.44-1.252-1.063-3.159-1.594-5.721-1.594-1.632 0-2.969.199-4.013.598-1.025.379-1.784.901-2.277 1.565s-.75 1.423-.769 2.277c-.038.702.086 1.338.37 1.907.304.551.778 1.054 1.424 1.509.645.436 1.47.835 2.476 1.195 1.006.361 2.201.683 3.586.968l4.782 1.025c3.226.683 5.987 1.584 8.283 2.704 2.296 1.119 4.174 2.438 5.635 3.956 1.462 1.499 2.534 3.188 3.217 5.067.702 1.878 1.062 3.927 1.081 6.148-.019 3.833-.977 7.077-2.874 9.734-1.898 2.656-4.611 4.677-8.141 6.062-3.51 1.386-7.732 2.078-12.666 2.078-5.066 0-9.488-.749-13.264-2.248-3.757-1.499-6.679-3.805-8.766-6.917-2.069-3.131-3.112-7.135-3.131-12.011h15.028c.095 1.784.541 3.283 1.338 4.497s1.917 2.135 3.359 2.761c1.461.626 3.197.939 5.208.939 1.689 0 3.103-.209 4.241-.626 1.139-.417 2.002-.996 2.591-1.736.588-.74.891-1.585.91-2.533-.019-.892-.313-1.67-.882-2.334-.55-.684-1.461-1.291-2.732-1.822-1.272-.55-2.989-1.063-5.152-1.537l-5.807-1.252c-5.161-1.12-9.231-2.989-12.21-5.608-2.961-2.637-4.431-6.233-4.412-10.787-.019-3.7.968-6.936 2.96-9.706 2.011-2.789 4.791-4.962 8.34-6.518 3.567-1.556 7.656-2.334 12.267-2.334 4.706 0 8.776.787 12.211 2.362 3.434 1.575 6.081 3.795 7.941 6.661 1.879 2.846 2.827 6.176 2.846 9.99z"/><path d="m206.057 181.013c-.151-1.897-.863-3.377-2.134-4.44-1.253-1.063-3.16-1.594-5.721-1.594-1.632 0-2.97.199-4.014.598-1.024.379-1.783.901-2.277 1.565-.493.664-.749 1.423-.768 2.277-.038.702.085 1.338.37 1.907.303.551.778 1.054 1.423 1.509.645.436 1.471.835 2.476 1.195 1.006.361 2.201.683 3.587.968l4.781 1.025c3.226.683 5.987 1.584 8.283 2.704 2.296 1.119 4.175 2.438 5.636 3.956 1.461 1.499 2.533 3.188 3.216 5.067.702 1.878 1.063 3.927 1.082 6.148-.019 3.833-.978 7.077-2.875 9.734-1.898 2.656-4.611 4.677-8.141 6.062-3.51 1.386-7.732 2.078-12.666 2.078-5.066 0-9.487-.749-13.263-2.248-3.757-1.499-6.68-3.805-8.767-6.917-2.068-3.131-3.112-7.135-3.131-12.011h15.029c.094 1.784.54 3.283 1.337 4.497s1.917 2.135 3.359 2.761c1.461.626 3.197.939 5.209.939 1.689 0 3.102-.209 4.241-.626 1.138-.417 2.002-.996 2.59-1.736s.892-1.585.911-2.533c-.019-.892-.313-1.67-.883-2.334-.55-.684-1.461-1.291-2.732-1.822-1.271-.55-2.989-1.063-5.152-1.537l-5.806-1.252c-5.162-1.12-9.232-2.989-12.211-5.608-2.96-2.637-4.431-6.233-4.412-10.787-.019-3.7.968-6.936 2.96-9.706 2.012-2.789 4.792-4.962 8.34-6.518 3.567-1.556 7.657-2.334 12.268-2.334 4.705 0 8.776.787 12.21 2.362 3.435 1.575 6.082 3.795 7.941 6.661 1.879 2.846 2.828 6.176 2.847 9.99z"/></g></svg>